<svg width="15" height="16" viewBox="0 0 15 16" xmlns="http://www.w3.org/2000/svg"><desc>Created with Sketch.</desc><path d="M24.34325,21.57975 C23.89675,20.68725 22.428,20.15 20.39525,19.40475 C20.108,19.3 19.80925,19.1925 19.5,19.07475 L19.5,17.45975 C19.70325,17.2375 20.2175,16.57725 20.268,15.55 C20.40925,15.4425 20.52225,15.2375 20.5875,14.9625 C20.69125,14.52225 20.6365,14 20.313,13.70975 C20.33475,13.65225 20.36175,13.58475 20.38675,13.52225 C20.626,12.91725 21.07125,11.795 20.8975,10.925 C20.7005,9.93975 19.2665,9.5 17.933,9.5 C16.95875,9.5 15.77275,9.74475 15.43375,10.41725 C15.059,10.44975 14.77225,10.59975 14.5795,10.85975 C14.05125,11.5725 14.44275,12.86225 14.653,13.5575 C14.66775,13.60475 14.6835,13.65725 14.6965,13.69975 C14.36475,13.98975 14.308,14.51725 14.4125,14.9625 C14.47775,15.2375 14.591,15.4425 14.73225,15.55 C14.782,16.5575 15.2845,17.15 15.5,17.35975 L15.5,19.07475 C15.19075,19.1925 14.89125,19.3 14.6035,19.40725 C12.571,20.15 11.10225,20.68725 10.65675,21.57975 C10.0075,22.87725 10,24.19475 10,24.24975 C10,24.38725 10.112,24.5 10.25,24.5 L24.75,24.5 C24.888,24.5 25,24.38725 25,24.24975 C25,24.19475 24.99275,22.87725 24.34325,21.57975" transform="translate(-20 -160) translate(10 151)" fill="#838D8F"/></svg>