<svg xmlns="http://www.w3.org/2000/svg" width="64" height="64" viewBox="0 0 64 64"><path fill-rule="evenodd" clip-rule="evenodd" fill="#1E1E1C" d="M41.871,56.033c-1.538,1.53-4.021,1.53-5.551,0L14.696,35.752	c-1.209-1.134-2.65-3.283-2.754-4.937c-0.278-4.475-0.082-13.044,0.054-17.587c0.049-1.656,1.441-3.044,3.098-3.082	c5.804-0.135,18.101-0.279,19.244,0.865l23.813,21.544c1.529,1.53,0.142,5.4-1.399,6.938L41.871,56.033z M22.922,16.727	c-1.297-1.294-3.394-1.294-4.692,0c-1.294,1.298-1.294,3.394,0,4.688c1.299,1.295,3.396,1.295,4.692,0	C24.217,20.121,24.217,18.024,22.922,16.727z"/></svg>