<svg width="15" height="16" viewBox="0 0 15 16" xmlns="http://www.w3.org/2000/svg"><desc>Created with Sketch.</desc><path d="M13.4022496,14.162 C12.7059997,14.162 12.1414997,13.59725 12.1414997,12.90225 C12.1414997,12.2045 12.7059997,11.63975 13.4022496,11.63975 C14.0984995,11.63975 14.6632494,12.2045 14.6632494,12.90225 C14.6632494,13.59725 14.0984995,14.162 13.4022496,14.162 L13.4022496,14.162 Z M24.9257482,18.7225 L15.6757493,9.57225 C15.6289993,9.525 15.5657493,9.5 15.4999994,9.5 L10.25,9.5 C10.112,9.5 10,9.61225 10,9.74975 L10,14.99975 C10,15.065 10.026,15.1275 10.07225,15.17475 L19.2227489,24.42475 C19.2694989,24.47225 19.3332489,24.5 19.3997489,24.5 L19.4004989,24.5 C19.4667489,24.5 19.5304989,24.47225 19.5772489,24.42725 L24.9267482,19.07725 C24.9739982,19.02975 25.0002482,18.96475 24.9999982,18.9 C24.9999982,18.83225 24.9732482,18.76975 24.9257482,18.7225 L24.9257482,18.7225 Z" transform="translate(-20 -248) translate(10 239)" fill="#838D8F"/></svg>