<svg width="13" height="13" viewBox="0 0 13 13" xmlns="http://www.w3.org/2000/svg"><desc>Created with Sketch.</desc><g fill="none"><circle fill="#ddd" cx="6.5" cy="6.5" r="6.5"/><path d="M10.209308,6.62042677 C10.1739554,5.61804504 9.76503419,4.68843439 9.05798182,4.00589683 C8.35092945,3.32306876 7.42995198,2.9599396 6.46624517,3.0035151 C5.48541878,3.03256543 4.58434456,3.48299084 3.92892928,4.23815424 C3.40949632,4.84821122 3.08979173,5.61804504 2.99319836,6.46064994 L2.50647352,5.73424637 C2.41823116,5.60351987 2.24480847,5.57446954 2.11870819,5.66176579 C1.99288627,5.74891679 1.96212671,5.9375987 2.05036907,6.0683252 L3.02465383,7.52084184 L3.03008199,7.52084184 C3.03704117,7.535367 3.04511381,7.55003742 3.05318646,7.55003742 C3.05889298,7.56441733 3.06404278,7.56441733 3.07002767,7.56441733 C3.08060562,7.5789425 3.09215785,7.59346767 3.10398845,7.59346767 C3.11442722,7.60799283 3.12542272,7.60799283 3.13669658,7.60799283 C3.14699616,7.62266325 3.15729575,7.62266325 3.16829125,7.62266325 C3.17636389,7.63704317 3.1847149,7.63704317 3.19306592,7.63704317 L3.22660915,7.63704317 L3.23565608,7.63704317 L3.25263647,7.63704317 L3.26321442,7.63704317 L3.27379237,7.63704317 L3.29327806,7.63704317 L3.31930538,7.63704317 C3.33002252,7.63704317 3.34004373,7.62266325 3.35020413,7.62266325 C3.35744167,7.62266325 3.3648184,7.62266325 3.37177758,7.60799283 C3.38235553,7.60799283 3.39209837,7.60799283 3.40184122,7.59346767 C3.40782611,7.59346767 3.41408937,7.59346767 3.4197959,7.5789425 C3.42981711,7.5789425 3.43872486,7.56441733 3.44763261,7.56441733 C3.45139056,7.55003742 3.45598362,7.55003742 3.45960239,7.55003742 L4.71225423,6.09752078 C4.81511086,5.9811742 4.80592475,5.79234704 4.69151588,5.69067087 C4.57738538,5.57446954 4.4013182,5.58913996 4.29846157,5.70534129 L3.53977211,6.59123119 C3.61479203,5.83592254 3.89037544,5.15338497 4.34411377,4.63033373 C4.8976467,3.97670124 5.6585631,3.61357208 6.48670515,3.58452175 C7.30343415,3.54094625 8.08105257,3.84612 8.67898505,4.4269814 C9.27719589,5.00813331 9.62306698,5.79234704 9.65299144,6.64933185 C9.68333345,7.49193675 9.39411006,8.30520082 8.8383502,8.92992822 C8.28272952,9.55436513 7.52738046,9.91749429 6.71162574,9.94668987 C6.55796712,9.96106978 6.43799091,10.0917963 6.44369743,10.2515731 C6.44912559,10.4113499 6.57258139,10.5275513 6.72164696,10.5275513 L6.73194654,10.5275513 C7.69648846,10.4986462 8.58935085,10.0628912 9.24629715,9.33648763 C9.90324344,8.59570415 10.2452174,7.63704317 10.209308,6.62042677" fill="#838D8F"/></g></svg>