<svg width="21" height="22" viewBox="0 0 21 22" xmlns="http://www.w3.org/2000/svg"><desc>Created with Sketch.</desc><path d="M18.2656598,34.2613838 L22.7654926,34.2613838 L22.7654926,19.9830851 L18.2656598,19.9830851 L18.2656598,34.2613838 Z M20.5161614,18.0337451 C22.0855439,18.0337451 23.0615805,16.9381667 23.0615805,15.5674599 C23.0346634,14.1671428 22.0855439,13.0999409 20.5454191,13.0999409 C19.0052942,13.0999409 18,14.1671428 18,15.5674599 C18,16.9381667 18.9760366,18.0337451 20.4857334,18.0337451 L20.5161614,18.0337451 L20.5161614,18.0337451 Z M25.2582479,34.2613838 C25.2582479,34.2613838 25.3179336,21.3229479 25.2582479,19.9843189 L29.7604213,19.9843189 L29.7604213,22.0533336 L29.7299933,22.0533336 C30.322169,21.0798973 31.3883192,19.6487363 33.8167075,19.6487363 C36.7775858,19.6487363 39,21.6881407 39,26.0753895 L39,34.2613838 L34.4978266,34.2613838 L34.4978266,26.6231787 C34.4978266,24.703449 33.8459652,23.3944301 32.216897,23.3944301 C30.9740303,23.3944301 30.2332256,24.2765682 29.9090504,25.1303297 C29.7873384,25.4350683 29.7604213,25.8619491 29.7604213,26.2888299 L29.7604213,34.2613838 L25.2582479,34.2613838 L25.2582479,34.2613838 Z" transform="translate(-18 -13.105)" fill="#348EE0"/></svg>