<svg xmlns="http://www.w3.org/2000/svg" viewBox="0 0 20 20" enable-background="new 0 0 20 20"><path fill="#3198DD" d="M10-39c3.9,0,7,3.1,7,7c0,2.1-1,4.1-2.6,5.5L14-26.2v0.5v3.8c0,0.6-0.4,1-1,1H7c-0.6,0-1-0.4-1-1v-3.8v-0.5 l-0.4-0.3c-1.9-1.5-2.9-3.9-2.6-6.3C3.4-36,6-38.6,9.2-39C9.5-39,9.7-39,10-39 M10-40c-0.3,0-0.6,0-0.9,0.1c-3.6,0.4-6.6,3.3-7,6.9 c-0.4,2.9,0.9,5.6,2.9,7.2v3.8c0,1.1,0.9,2,2,2h6c1.1,0,2-0.9,2-2v-3.8c1.8-1.5,3-3.7,3-6.2C18-36.4,14.4-40,10-40L10-40z"/><line stroke="#3198DD" stroke-miterlimit="10" x1="5" y1="-23.5" x2="15" y2="-23.5" fill="none"/><path fill="#fff" d="M1-18.5c-0.6,0-1.3-0.2-1.8-0.7c-1-1-1-2.6,0-3.5l18-18c1-1,2.6-1,3.5,0c1,1,1,2.6,0,3.5l-18,18	C2.3-18.7,1.6-18.5,1-18.5z"/><path fill="#3198DD" d="M1-20.5c-0.1,0-0.3,0-0.4-0.1c-0.2-0.2-0.2-0.5,0-0.7l18-18c0.2-0.2,0.5-0.2,0.7,0s0.2,0.5,0,0.7l-18,18	C1.3-20.5,1.1-20.5,1-20.5z"/><path fill="#fff" d="M2,17.5c-0.8,0-1.5-0.7-1.5-1.5V4.8L10,9.6l9.5-4.8V16c0,0.8-0.7,1.5-1.5,1.5H2z"/><path fill="#B6BBBF" d="M19,5.6V16c0,0.6-0.4,1-1,1H2c-0.6,0-1-0.4-1-1V5.6l8.6,4.3l0.4,0.2l0.4-0.2L19,5.6 M20,4L10,9L0,4v12 c0,1.1,0.9,2,2,2h16c1.1,0,2-0.9,2-2V4L20,4z"/><path fill="#fff" d="M0.5,4.7V4c0-0.8,0.7-1.5,1.5-1.5h16c0.8,0,1.5,0.7,1.5,1.5v0.7L10,11.4L0.5,4.7z"/><path fill="#B6BBBF" d="M18,3c0.6,0,1,0.4,1,1v0.5l-9,6.3L1,4.5V4c0-0.6,0.4-1,1-1H18 M18,2H2C0.9,2,0,2.9,0,4v1l10,7l10-7V4 C20,2.9,19.1,2,18,2L18,2z"/></svg>