<svg xmlns="http://www.w3.org/2000/svg" viewBox="0 0 20 20" enable-background="new 0 0 20 20"><path fill="#fff" d="M10,1c3.9,0,7,3.1,7,7c0,2.1-1,4.1-2.6,5.5L14,13.8v0.5V18c0,0.6-0.4,1-1,1H7c-0.6,0-1-0.4-1-1v-3.8v-0.5 l-0.4-0.3c-1.9-1.5-2.9-3.9-2.6-6.3C3.4,4,6,1.4,9.2,1C9.5,1,9.7,1,10,1 M10,0C9.7,0,9.4,0,9.1,0.1C5.5,0.5,2.5,3.4,2.1,7 C1.7,9.9,2.9,12.6,5,14.2V18c0,1.1,0.9,2,2,2h6c1.1,0,2-0.9,2-2v-3.8c1.8-1.5,3-3.7,3-6.2C18,3.6,14.4,0,10,0L10,0z"/><line stroke="#fff" stroke-miterlimit="10" x1="5" y1="16.5" x2="15" y2="16.5" fill="none"/><line stroke="#fff" stroke-width="2" stroke-linecap="round" stroke-miterlimit="10" x1="12" y1="5.5" x2="12" y2="10.5" fill="none"/><line stroke="#fff" stroke-width="2" stroke-linecap="round" stroke-miterlimit="10" x1="8" y1="5.5" x2="8" y2="10.5" fill="none"/></svg>