<svg width="11" height="22" viewBox="0 0 11 22" xmlns="http://www.w3.org/2000/svg"><desc>Created with Sketch.</desc><path d="M23.3625325,19.6871155 L25.588621,19.6871155 L25.588621,17.6155384 C25.588621,16.7015717 25.6126799,15.2930447 26.3065915,14.4202914 C27.0359584,13.4954152 28.0388378,12.8675176 29.7622203,12.8675176 C32.5707892,12.8675176 33.7534779,13.2505594 33.7534779,13.2505594 L33.1975889,16.4094417 C33.1975889,16.4094417 32.2694189,16.1512522 31.4032957,16.1512522 C30.5384388,16.1512522 29.7622203,16.4494429 29.7622203,17.2773465 L29.7622203,19.6871155 L33.3128187,19.6871155 L33.0658976,22.7720563 L29.7622203,22.7720563 L29.7622203,33.4875282 L25.588621,33.4875282 L25.588621,22.7720563 L23.3625325,22.7720563 L23.3625325,19.6871155" transform="translate(-548 -279) translate(525 267)" fill="#348EE0"/></svg>