<svg width="15" height="13" viewBox="0 0 15 13" xmlns="http://www.w3.org/2000/svg"><desc>Created with Sketch.</desc><path d="M24.75,9 L10.25,9 C10.112,9 10,9.117 10,9.26 L10,19.14 C10,19.283 10.112,19.4 10.25,19.4 L14.5,19.4 L14.5,21.74 C14.5,21.844 14.561,21.94046 14.65425,21.9792 C14.6855,21.9922 14.71775,22 14.75,22 C14.81525,22 14.879,21.974 14.92675,21.9246 L17.3535,19.4 L24.75,19.4 C24.888,19.4 25,19.283 25,19.14 L25,9.26 C25,9.117 24.888,9 24.75,9" transform="translate(-349 -797) translate(339 788)" fill="#838D8F"/></svg>