<svg xmlns="http://www.w3.org/2000/svg" viewBox="0 0 20 20" enable-background="new 0 0 20 20"><text transform="translate(-34.558 -27.75)" font-family="'Helvetica'" font-size="8">Follow</text><text transform="translate(-39.896 3.085)" font-family="'Helvetica'" font-size="8">Following</text><text transform="translate(-38.34 34.25)" font-family="'Helvetica'" font-size="8">Unfollow</text><text transform="translate(-71.893 -27.915)" font-family="'Helvetica'" font-size="8">Mute</text><text transform="translate(-74.117 2.92)" font-family="'Helvetica'" font-size="8">Muted</text><text transform="translate(-77.006 34.084)" font-family="'Helvetica'" font-size="8">Unmute</text><path fill="#3198DD" d="M50,1c5,0,9,4,9,9s-4,9-9,9s-9-4-9-9S45,1,50,1 M50,0c-5.5,0-10,4.5-10,10s4.5,10,10,10s10-4.5,10-10 S55.5,0,50,0L50,0z"/><rect x="46" y="6" fill="#3198DD" width="2" height="8"/><rect x="52" y="6" fill="#3198DD" width="2" height="8"/><path fill="#fff" d="M10,0.9c5,0,9,4,9,9s-4,9-9,9s-9-4-9-9S5,0.9,10,0.9 M10-0.1c-5.5,0-10,4.5-10,10s4.5,10,10,10 s10-4.5,10-10S15.5-0.1,10-0.1L10-0.1z"/><rect x="6" y="8.9" fill="#fff" width="8" height="2"/></svg>