<svg xmlns="http://www.w3.org/2000/svg" viewBox="0 0 20 20" enable-background="new 0 0 20 20"><rect x="-33" y="6" opacity=".25" fill="#ED1C24" width="20" height="20"/><rect x="-33" y="36.1" opacity=".25" fill="#ED1C24" width="20" height="20"/><text transform="translate(-34.558 -27.75)" font-family="'Helvetica'" font-size="8">Follow</text><text transform="translate(-39.896 3.085)" font-family="'Helvetica'" font-size="8">Following</text><text transform="translate(-38.34 34.25)" font-family="'Helvetica'" font-size="8">Unfollow</text><text transform="translate(-71.893 -27.915)" font-family="'Helvetica'" font-size="8">Mute</text><text transform="translate(-74.117 2.92)" font-family="'Helvetica'" font-size="8">Muted</text><text transform="translate(-77.006 34.084)" font-family="'Helvetica'" font-size="8">Unmute</text><path fill="#3198DD" d="M50,1c5,0,9,4,9,9s-4,9-9,9s-9-4-9-9S45,1,50,1 M50,0c-5.5,0-10,4.5-10,10s4.5,10,10,10s10-4.5,10-10 S55.5,0,50,0L50,0z"/><rect x="46" y="6" fill="#3198DD" width="2" height="8"/><rect x="52" y="6" fill="#3198DD" width="2" height="8"/><path fill="#3198DD" d="M10,1c5,0,9,4,9,9s-4,9-9,9s-9-4-9-9S5,1,10,1 M10,0C4.5,0,0,4.4,0,10s4.5,10,10,10s10-4.5,10-10 S15.5,0,10,0L10,0z"/><path fill="#fff" d="M-23,7c5,0,9,4,9,9s-4,9-9,9s-9-4-9-9S-28,7-23,7 M-23,6c-5.5,0-10,4.5-10,10s4.5,10,10,10s10-4.5,10-10 S-17.5,6-23,6L-23,6zM-23,37c5,0,9,4,9,9s-4,9-9,9s-9-4-9-9S-28,37-23,37 M-23,36c-5.5,0-10,4.5-10,10s4.5,10,10,10 s10-4.5,10-10S-17.5,36-23,36L-23,36z"/><rect x="9" y="6" fill="#3198DD" width="2" height="8"/><rect x="6" y="9" fill="#3198DD" width="8" height="2"/><rect x="-22.9" y="12.1" transform="matrix(.707 .707 -.707 .707 4.931 20.217)" fill="#fff" width="2" height="8"/><rect x="-26.1" y="14.6" transform="matrix(-.707 .707 -.707 -.707 -30.778 46.991)" fill="#fff" width="2" height="5"/><rect x="-27" y="45" fill="#fff" width="8" height="2"/></svg>