<svg xmlns="http://www.w3.org/2000/svg" viewBox="0 0 20 20" enable-background="new 0 0 20 20"><rect x="-20" y="-53" opacity=".25" fill="#ED1C24" width="20" height="20"/><rect x="60" y="-53" opacity=".25" fill="#ED1C24" width="20" height="20"/><path fill="#3198DD" d="M70-52c3.9,0,7,3.1,7,7c0,2.1-1,4.1-2.6,5.5L74-39.2v0.5v3.8c0,0.6-0.4,1-1,1h-6c-0.6,0-1-0.4-1-1v-3.8 v-0.5l-0.4-0.3c-1.9-1.5-2.9-3.9-2.6-6.3c0.4-3.2,3-5.7,6.1-6.1C69.5-52,69.7-52,70-52 M70-53c-0.3,0-0.6,0-0.9,0.1 c-3.6,0.4-6.6,3.3-7,6.9c-0.4,2.9,0.9,5.6,2.9,7.2v3.8c0,1.1,0.9,2,2,2h6c1.1,0,2-0.9,2-2v-3.8c1.8-1.5,3-3.7,3-6.2 C78-49.4,74.4-53,70-53L70-53z"/><line stroke="#3198DD" stroke-miterlimit="10" x1="65" y1="-36.5" x2="75" y2="-36.5" fill="none"/><path fill="#3198DD" d="M-10-52c3.9,0,7,3.1,7,7c0,2.1-1,4.1-2.6,5.5L-6-39.2v0.5v3.8c0,0.6-0.4,1-1,1h-6c-0.6,0-1-0.4-1-1v-3.8 v-0.5l-0.4-0.3c-1.9-1.5-2.9-3.9-2.6-6.3c0.4-3.2,3-5.7,6.1-6.1C-10.5-52-10.3-52-10-52 M-10-53c-0.3,0-0.6,0-0.9,0.1 c-3.6,0.4-6.6,3.3-7,6.9c-0.4,2.9,0.9,5.6,2.9,7.2v3.8c0,1.1,0.9,2,2,2h6c1.1,0,2-0.9,2-2v-3.8c1.8-1.5,3-3.7,3-6.2 C-2-49.4-5.6-53-10-53L-10-53z"/><line stroke="#3198DD" stroke-miterlimit="10" x1="-15" y1="-36.5" x2="-5" y2="-36.5" fill="none"/><g stroke-linecap="round" stroke-miterlimit="10" fill="none"><line stroke="#fff" stroke-width="5" x1="-19" y1="-34" x2="-1" y2="-52"/><line stroke="#3198DD" x1="-19" y1="-34" x2="-1" y2="-52"/></g><line stroke="#3198DD" stroke-linecap="round" stroke-miterlimit="10" x1="70" y1="-48" x2="70" y2="-42" fill="none"/><line stroke="#3198DD" stroke-linecap="round" stroke-miterlimit="10" x1="73" y1="-45" x2="67" y2="-45" fill="none"/><path fill="#3198DD" d="M10,1c3.9,0,7,3.1,7,7c0,2.1-1,4.1-2.6,5.5L14,13.8v0.5V18c0,0.6-0.4,1-1,1H7c-0.6,0-1-0.4-1-1v-3.8v-0.5 l-0.4-0.3c-1.9-1.5-2.9-3.9-2.6-6.3C3.4,4,6,1.4,9.2,1C9.5,1,9.7,1,10,1 M10,0C9.7,0,9.4,0,9.1,0.1C5.5,0.5,2.5,3.4,2.1,7 C1.7,9.9,2.9,12.6,5,14.2V18c0,1.1,0.9,2,2,2h6c1.1,0,2-0.9,2-2v-3.8c1.8-1.5,3-3.7,3-6.2C18,3.6,14.4,0,10,0L10,0z"/><polyline fill="#3198DD" points="11.5,2.8 10.8,7.2 13.8,7.2 8.5,13.2 9.3,8.7 6.3,8.7 11.5,2.8"/><line stroke="#3198DD" stroke-miterlimit="10" x1="5" y1="16.5" x2="15" y2="16.5" fill="none"/></svg>