<svg xmlns="http://www.w3.org/2000/svg" viewBox="0 0 20 20" enable-background="new 0 0 20 20"><path fill="#3198DD" d="M10-39c3.9,0,7,3.1,7,7c0,2.1-1,4.1-2.6,5.5L14-26.2v0.5v3.8c0,0.6-0.4,1-1,1H7c-0.6,0-1-0.4-1-1v-3.8v-0.5 l-0.4-0.3c-1.9-1.5-2.9-3.9-2.6-6.3C3.4-36,6-38.6,9.2-39C9.5-39,9.7-39,10-39 M10-40c-0.3,0-0.6,0-0.9,0.1c-3.6,0.4-6.6,3.3-7,6.9 c-0.4,2.9,0.9,5.6,2.9,7.2v3.8c0,1.1,0.9,2,2,2h6c1.1,0,2-0.9,2-2v-3.8c1.8-1.5,3-3.7,3-6.2C18-36.4,14.4-40,10-40L10-40z"/><line stroke="#3198DD" stroke-miterlimit="10" x1="5" y1="-23.5" x2="15" y2="-23.5" fill="none"/><path fill="#fff" d="M1-18.5c-0.6,0-1.3-0.2-1.8-0.7c-1-1-1-2.6,0-3.5l18-18c1-1,2.6-1,3.5,0c1,1,1,2.6,0,3.5l-18,18	C2.3-18.7,1.6-18.5,1-18.5z"/><path fill="#3198DD" d="M1-20.5c-0.1,0-0.3,0-0.4-0.1c-0.2-0.2-0.2-0.5,0-0.7l18-18c0.2-0.2,0.5-0.2,0.7,0s0.2,0.5,0,0.7l-18,18	C1.3-20.5,1.1-20.5,1-20.5z"/><line stroke="#373A3D" stroke-width="2" stroke-linecap="round" stroke-linejoin="round" stroke-miterlimit="10" x1="7" y1="3" x2="7" y2="17" fill="none"/><path fill="#373A3D" stroke="#373A3D" stroke-width="2" stroke-linecap="round" stroke-linejoin="round" stroke-miterlimit="10" d="M13,11c-4,0-6-2-6-2V3c0,0,2,2,6,2V11z"/><path fill="#fff" d="M25,60.3c-0.8,0-1.5-0.7-1.5-1.5V47.6l9.5,4.8l9.5-4.8v11.2c0,0.8-0.7,1.5-1.5,1.5H25z"/><path fill="#3F4244" d="M42,48.4v10.4c0,0.6-0.4,1-1,1H25c-0.6,0-1-0.4-1-1V48.4l8.6,4.3l0.4,0.2l0.4-0.2L42,48.4 M43,46.8l-10,5 l-10-5v12c0,1.1,0.9,2,2,2h16c1.1,0,2-0.9,2-2V46.8L43,46.8z"/><path fill="#fff" d="M23.5,47.6v-0.7c0-0.8,0.7-1.5,1.5-1.5h16c0.8,0,1.5,0.7,1.5,1.5v0.7L33,54.2L23.5,47.6z"/><path fill="#3F4244" d="M41,45.8c0.6,0,1,0.4,1,1v0.5l-9,6.3l-9-6.3v-0.5c0-0.6,0.4-1,1-1H41 M41,44.8H25c-1.1,0-2,0.9-2,2v1l10,7 l10-7v-1C43,45.7,42.1,44.8,41,44.8L41,44.8z"/></svg>