<svg xmlns="http://www.w3.org/2000/svg" viewBox="0 0 20 20" enable-background="new 0 0 20 20"><rect x="-33" y="-24" opacity=".25" fill="#ED1C24" width="20" height="20"/><rect x="-33" y="6" opacity=".25" fill="#ED1C24" width="20" height="20"/><rect x="-33" y="36.1" opacity=".25" fill="#ED1C24" width="20" height="20"/><rect x="-73" y="36.1" opacity=".25" fill="#ED1C24" width="20" height="20"/><text transform="translate(-34.558 -27.75)" font-family="'Helvetica'" font-size="8">Follow</text><text transform="translate(-39.896 3.085)" font-family="'Helvetica'" font-size="8">Following</text><text transform="translate(-38.34 34.25)" font-family="'Helvetica'" font-size="8">Unfollow</text><text transform="translate(-71.893 -27.915)" font-family="'Helvetica'" font-size="8">Mute</text><text transform="translate(-74.117 2.92)" font-family="'Helvetica'" font-size="8">Muted</text><text transform="translate(-77.006 34.084)" font-family="'Helvetica'" font-size="8">Unmute</text><path fill="#3198DD" d="M50,1c5,0,9,4,9,9s-4,9-9,9s-9-4-9-9S45,1,50,1 M50,0c-5.5,0-10,4.5-10,10s4.5,10,10,10s10-4.5,10-10 S55.5,0,50,0L50,0z"/><rect x="46" y="6" fill="#3198DD" width="2" height="8"/><rect x="52" y="6" fill="#3198DD" width="2" height="8"/><path fill="#fff" d="M10,0.9c5,0,9,4,9,9s-4,9-9,9s-9-4-9-9S5,0.9,10,0.9 M10-0.1c-5.5,0-10,4.5-10,10s4.5,10,10,10 s10-4.5,10-10S15.5-0.1,10-0.1L10-0.1zM-63,37c5,0,9,4,9,9s-4,9-9,9s-9-4-9-9S-68,37-63,37 M-63,36c-5.5,0-10,4.5-10,10s4.5,10,10,10 s10-4.5,10-10S-57.5,36-63,36L-63,36z"/><polygon fill="#fff" points="-66,50 -66,42 -59,46"/><path fill="#fff" d="M-23-23c5,0,9,4,9,9s-4,9-9,9s-9-4-9-9S-28-23-23-23 M-23-24c-5.5,0-10,4.5-10,10s4.5,10,10,10 s10-4.5,10-10S-17.5-24-23-24L-23-24zM-23,7c5,0,9,4,9,9s-4,9-9,9s-9-4-9-9S-28,7-23,7 M-23,6c-5.5,0-10,4.5-10,10s4.5,10,10,10s10-4.5,10-10 S-17.5,6-23,6L-23,6zM-23,37c5,0,9,4,9,9s-4,9-9,9s-9-4-9-9S-28,37-23,37 M-23,36c-5.5,0-10,4.5-10,10s4.5,10,10,10 s10-4.5,10-10S-17.5,36-23,36L-23,36z"/><rect x="-24" y="-18" fill="#fff" width="2" height="8"/><rect x="-27" y="-15" fill="#fff" width="8" height="2"/><rect x="-22.9" y="12.1" transform="matrix(.707 .707 -.707 .707 4.931 20.217)" fill="#fff" width="2" height="8"/><rect x="-26.1" y="14.6" transform="matrix(-.707 .707 -.707 -.707 -30.778 46.991)" fill="#fff" width="2" height="5"/><rect x="-27" y="45" fill="#fff" width="8" height="2"/><line stroke="#fff" stroke-width="2" stroke-miterlimit="10" x1="17" y1="2.9" x2="3" y2="16.9" fill="none"/></svg>