<svg width="26" height="28" viewBox="0 0 26 28" xmlns="http://www.w3.org/2000/svg"><desc>Created with Sketch.</desc><path d="M74.0202581,31.6080097 C73.3596805,31.2868475 72.7753284,31.027422 72.2212048,30.8010322 C73.0973731,28.466531 74.3626514,26.9277108 76.0001589,26.9277108 C77.5953989,26.9277108 78.8373843,28.3878495 79.7104773,30.621339 C79.1502688,30.8584342 78.574946,31.1225885 77.9213693,31.450187 C77.2522859,29.6919389 76.4889837,28.8980311 76.0001589,28.8980311 C75.4969396,28.8980311 74.7030818,29.7394236 74.0202581,31.6080097 L74.0202581,31.6080097 Z M76.0001589,51.8851014 C75.5113341,51.8851014 74.7481628,51.0911937 74.0790793,49.3328798 C73.4192869,49.6636309 72.8488059,49.9250267 72.2898405,50.1617936 C73.1630644,52.3952173 74.4049189,53.8554217 76.0001589,53.8554217 C77.6377973,53.8554217 78.9029448,52.3166015 79.7792439,49.982166 C79.2270832,49.7564987 78.644694,49.498321 77.9801906,49.1751228 C77.2973669,51.0437746 76.5033782,51.8851014 76.0001589,51.8851014 L76.0001589,51.8851014 Z M70.6421913,49.3994766 C68.460113,50.1905602 65.2042688,50.9612839 63.9103323,49.0435054 C63.2710847,48.0959784 63.0325283,46.2743516 65.5261172,42.9764952 C66.1876762,42.1015416 66.9535301,41.2420879 67.7303762,40.4532373 C69.4730946,38.7098322 71.4363763,37.0317104 73.9944788,35.2941506 C72.7629622,34.6247671 71.4187103,33.9848071 70.1071732,33.5085807 C68.7645571,33.0209921 67.5825052,32.7509925 66.6768282,32.7509925 C66.0982993,32.7509925 65.6689501,32.8720359 65.5283418,33.0747818 C65.3788351,33.2902692 65.3714415,33.9530849 66.0350289,35.1420419 C66.1136099,35.1333725 66.1932377,35.1285123 66.2739779,35.1285123 C67.4664331,35.1285123 68.4331559,36.0988951 68.4331559,37.2958647 C68.4331559,38.4929656 67.4664331,39.463217 66.2739779,39.463217 C65.0815228,39.463217 64.1147999,38.4929656 64.1147999,37.2958647 C64.1147999,36.908237 64.2168047,36.5445815 64.3943807,36.2297244 C63.130869,34.0307812 63.3914753,32.7073828 63.9173332,31.9490721 C64.2868798,31.4161005 65.0656888,30.7807379 66.6767628,30.7807379 C69.5375428,30.7807379 73.3921336,32.6430846 75.8738143,34.0857532 C78.3935096,32.5567846 82.3789597,30.5399647 85.3231625,30.5399647 C86.9407794,30.5399647 87.7204389,31.1922721 88.0895929,31.7394957 C88.7288405,32.6870885 88.967397,34.5087153 86.4739389,37.8065717 C82.964424,42.448318 75.9864841,47.4619293 70.6421913,49.3994766 L70.6421913,49.3994766 Z M84.9106286,36.6153817 C86.6237074,34.3497104 86.6761819,33.1579293 86.4645825,32.84432 C86.321357,32.6320508 85.9054862,32.510285 85.3234242,32.510285 C83.1020226,32.510285 79.7184597,34.1476212 77.7704886,35.255795 C79.2087629,36.1941272 80.5524259,37.1831624 81.7773996,38.191638 C81.313896,38.6551887 80.8280155,39.1098729 80.3312737,39.5498454 C78.9714496,38.4460063 77.4598941,37.3651543 75.8930506,36.3966105 C74.0937356,37.5596249 72.2822506,38.9257793 70.655081,40.3813863 C71.8789423,41.4481834 73.3359295,42.5681791 74.8900142,43.6045676 C74.2955206,43.9759073 73.6952691,44.3318128 73.0102862,44.704269 C73.0100245,44.704072 73.0098936,44.7039406 73.0096319,44.7038093 C73.0045284,44.700197 72.9995557,44.6966505 72.9944522,44.6930382 C71.6933839,43.78321 70.4093273,42.7848487 69.2216485,41.7398565 C66.0142877,44.9690801 65.1108353,47.3089668 65.5356045,47.9386812 C65.6788299,48.151016 66.0949624,48.2728475 66.6768936,48.2728475 C69.3510683,48.2728475 73.5959469,46.0096719 76.1072018,44.386522 C79.1903771,42.3937401 82.7063041,39.5308647 84.9106286,36.6153817 L84.9106286,36.6153817 Z M87.6154244,44.5706156 C87.7751381,44.2681715 87.8660199,43.9233654 87.8660199,43.5570829 C87.8660199,42.3601133 86.899297,41.3897305 85.7068419,41.3897305 C84.5143867,41.3897305 83.5476638,42.3601133 83.5476638,43.5570829 C83.5476638,44.7541838 84.5143867,45.7244352 85.7068419,45.7244352 C85.8063603,45.7244352 85.9041776,45.7170793 85.9999666,45.7039439 C86.6288109,46.8536258 86.618473,47.496607 86.4716489,47.7083507 C86.331106,47.911031 85.9018222,48.0320743 85.3232933,48.0320743 C83.5006854,48.0320743 80.961492,46.9719763 79.3266671,46.1718293 C78.7798716,46.5553193 78.10117,47.0105289 77.4392838,47.4277114 C79.630784,48.5913169 82.8537171,50.0023947 85.3232933,50.0023947 C86.9342364,50.0023947 87.71298,49.367032 88.082592,48.8341261 C88.6072722,48.0777858 88.8676822,46.7593131 87.6154244,44.5706156 L87.6154244,44.5706156 Z" transform="translate(-63 -26)" fill="#348EE0"/></svg>