<svg width="28" height="28" viewBox="0 0 28 28" xmlns="http://www.w3.org/2000/svg"><desc>Created with Sketch.</desc><g fill="#348EE0"><path d="M10.0965752,25.4756091 L10.7825621,24.7869578 C10.9499608,24.618909 10.9762876,24.3556158 10.8446536,24.1576473 L8.85772549,21.1656794 C8.80010458,21.0789123 8.71615686,21.0125904 8.61879739,20.9751908 L4.64494118,19.4792068 C4.42886275,19.397925 4.18546405,19.4772122 4.05730719,19.6696954 L3.3425098,20.7463052 C1.9774902,18.8503949 1.12857516,16.5570515 1.00886275,14.0737182 L2.20797386,14.8760643 C2.29291503,14.932413 2.38878431,14.9598394 2.4831634,14.9598394 C2.64360784,14.9598394 2.8010719,14.8820482 2.89694118,14.7379351 L4.88386928,11.7459672 C4.93801307,11.6641867 4.96732026,11.5674465 4.96732026,11.4692102 L4.96732026,7.47991968 C4.96732026,7.33979585 4.90870588,7.20615462 4.80538562,7.11190763 C4.70256209,7.01716198 4.56447059,6.96978916 4.42588235,6.98325301 L2.71662745,7.13883534 C4.25053595,4.53582329 6.69843137,2.53818608 9.61524183,1.59521754 L8.97247059,3.3151004 C8.92279739,3.44874163 8.93223529,3.59684404 8.99830065,3.72250669 C9.06386928,3.84816934 9.18010458,3.93992303 9.31720261,3.97433066 L13.2910588,4.97165328 C13.3307974,4.98162651 13.3710327,4.98661312 13.4117647,4.98661312 C13.4524967,4.98661312 13.492732,4.98162651 13.5324706,4.97165328 L17.5063268,3.97433066 C17.6434248,3.93992303 17.7596601,3.84816934 17.8252288,3.72250669 C17.8912941,3.59684404 17.900732,3.44874163 17.8510588,3.3151004 L17.2082876,1.59521754 C20.125098,2.53818608 22.5729935,4.53582329 24.106902,7.13883534 L22.3976471,6.98325301 C22.2560784,6.96978916 22.1209673,7.01716198 22.0181438,7.11190763 C21.9148235,7.20615462 21.8562092,7.33979585 21.8562092,7.47991968 L21.8562092,11.4692102 C21.8562092,11.5674465 21.8855163,11.6641867 21.9396601,11.7459672 L23.9265882,14.7379351 C24.0224575,14.8820482 24.1799216,14.9598394 24.340366,14.9598394 C24.4347451,14.9598394 24.5306144,14.932413 24.6155556,14.8760643 L25.8146667,14.0737182 C25.6949542,16.5570515 24.8460392,18.8503949 23.4810196,20.7463052 L22.7662222,19.6696954 C22.6375686,19.4772122 22.3941699,19.397925 22.1785882,19.4792068 L18.204732,20.9751908 C18.1073725,21.0125904 18.0234248,21.0789123 17.9658039,21.1656794 L15.9788758,24.1576473 C15.8472418,24.3556158 15.8735686,24.618909 16.0409673,24.7869578 L16.7269542,25.4756091 C15.670902,25.7698193 14.5602092,25.9303882 13.4117647,25.9303882 C12.2633203,25.9303882 11.1526275,25.7698193 10.0965752,25.4756091 L10.0965752,25.4756091 Z M23.8312157,21.9286312 C23.8495948,21.9071888 23.8689673,21.8867436 23.8833725,21.8623092 C25.7207843,19.5579953 26.8235294,16.6383333 26.8235294,13.4638554 C26.8235294,11.3515261 26.3352418,9.35089692 25.467451,7.57017738 C25.4654641,7.5646921 25.4619869,7.56070281 25.46,7.5557162 C23.2758693,3.0857162 18.6964967,0 13.4117647,0 C8.12703268,0 3.54766013,3.0857162 1.36352941,7.5557162 C1.36154248,7.56070281 1.35806536,7.5646921 1.35607843,7.57017738 C0.488287582,9.35089692 0,11.3515261 0,13.4638554 C0,16.6383333 1.1027451,19.5579953 2.94015686,21.8623092 C2.95456209,21.8867436 2.97393464,21.9071888 2.99231373,21.9286312 C4.53913725,23.842992 6.59709804,25.3240161 8.95657516,26.1612684 C8.97495425,26.169247 8.99333333,26.1737349 9.01270588,26.1797189 C10.391634,26.662423 11.870902,26.9277108 13.4117647,26.9277108 C14.9526275,26.9277108 16.4318954,26.662423 17.8108235,26.1797189 C17.8301961,26.1737349 17.8485752,26.169247 17.8669542,26.1612684 C20.2264314,25.3240161 22.2843922,23.842992 23.8312157,21.9286312 L23.8312157,21.9286312 Z" transform="translate(.588 .928)"/><path d="M16.3609454,16.6314767 L17.8511415,12.6421862 C17.928135,12.4347431 17.8600827,12.200871 17.6837428,12.0677284 L13.7098866,9.07576054 C13.5335467,8.94261797 13.290148,8.94261797 13.1138082,9.07576054 L9.13995197,12.0677284 C8.9636121,12.200871 8.89555981,12.4347431 8.97255328,12.6421862 L10.4627494,16.6314767 C10.535769,16.825456 10.72105,16.9546093 10.9281873,16.9546093 L15.8955075,16.9546093 C16.1026448,16.9546093 16.2879258,16.825456 16.3609454,16.6314767" transform="translate(.588 .928)"/></g></svg>