<svg width="23" height="24" viewBox="0 0 23 24" xmlns="http://www.w3.org/2000/svg"><desc>Created with Sketch.</desc><path d="M65.2705882,29.6204819 L65.2705882,41.2211372 C65.2705882,40.7047042 65.5611765,40.3083981 66.0156863,40.0011579 L66.0156863,30.3685612 L86.8784314,30.3685612 L86.8784314,43.0926452 L77.1921569,43.0926452 L77.1921569,43.8407245 L87.6235294,43.8407245 L87.6235294,29.6204819 L65.2705882,29.6204819 Z M76.4470588,38.9757766 C75.0090196,38.9757766 73.8392157,37.8007046 73.8392157,36.3565636 C73.8392157,34.9124225 75.0090196,33.7369763 76.4470588,33.7369763 C77.885098,33.7369763 79.054902,34.9124225 79.054902,36.3565636 C79.054902,37.8007046 77.885098,38.9757766 76.4470588,38.9757766 Z M70.1137255,35.6077358 C69.4990196,35.6077358 68.9960784,35.1036524 68.9960784,34.4846813 C68.9960784,33.8657103 69.4990196,33.3623753 70.1137255,33.3623753 C70.7284314,33.3623753 71.2313725,33.8657103 71.2313725,34.4846813 C71.2313725,35.1036524 70.7284314,35.6077358 70.1137255,35.6077358 L70.1137255,35.6077358 Z M82.7803922,37.8530964 C83.395098,37.8530964 83.8980392,38.3564313 83.8980392,38.9754024 C83.8980392,39.5943735 83.395098,40.0984569 82.7803922,40.0984569 C82.1656863,40.0984569 81.6627451,39.5943735 81.6627451,38.9754024 C81.6627451,38.3564313 82.1656863,37.8530964 82.7803922,37.8530964 L82.7803922,37.8530964 Z M77.1921569,41.5953639 L83.8980392,41.5953639 C84.732549,41.5953639 85.3882353,40.9378475 85.3882353,40.0984569 L85.3882353,33.3623753 C85.3882353,32.5229847 84.732549,31.8658425 83.8980392,31.8658425 L68.9960784,31.8658425 C68.1615686,31.8658425 67.5058824,32.5229847 67.5058824,33.3623753 L67.5058824,39.3863034 C68.962549,39.0090828 70.687451,38.9757766 71.2313725,38.9757766 C72.2260784,38.9757766 77.1921569,39.0843024 77.1921569,41.2211372 L77.1921569,41.5953639 Z M66.0156863,49.4545001 L66.0156863,50.5629597 C66.0156863,50.6299463 66.0305882,50.6935648 66.0529412,50.754938 C66.0715686,50.7979741 66.0976471,50.8391391 66.127451,50.8806782 C66.134902,50.8960215 66.1423529,50.9128617 66.1535294,50.928205 C66.1945098,50.9794741 66.2466667,51.028872 66.302549,51.0771473 C66.3062745,51.0797669 66.31,51.0831349 66.3137255,51.0865029 C66.4366667,51.1864215 66.5931373,51.278107 66.7794118,51.3623081 C66.7831373,51.3653019 66.7905882,51.3675472 66.7943137,51.3701668 C66.8762745,51.406841 66.9619608,51.4405215 67.055098,51.4742019 C67.077451,51.4831833 67.1035294,51.4921647 67.1296078,51.5011462 C67.1966667,51.5254709 67.2711765,51.548673 67.3456863,51.5711266 C67.4052941,51.5894637 67.4686275,51.6085493 67.5319608,51.6253895 C67.5692157,51.636242 67.6101961,51.6459719 67.647451,51.6560761 C68.6682353,51.9139183 69.9535294,52.0325482 70.8886275,52.055376 C71.0041176,52.0579956 71.1196078,52.060241 71.2313725,52.060241 C71.3431373,52.060241 71.4586275,52.0579956 71.5741176,52.055376 C72.5092157,52.0325482 73.7945098,51.9139183 74.8152941,51.6560761 C74.852549,51.6459719 74.8898039,51.636242 74.9307843,51.6253895 C74.9941176,51.6085493 75.0537255,51.5894637 75.1170588,51.5711266 C75.1915686,51.548673 75.2660784,51.5254709 75.3331373,51.5011462 C75.3592157,51.4921647 75.3852941,51.4831833 75.4076471,51.4742019 C75.4970588,51.4405215 75.5864706,51.406841 75.6684314,51.3701668 C75.6721569,51.3675472 75.6796078,51.3653019 75.6833333,51.3623081 C75.8696078,51.278107 76.0260784,51.1864215 76.1490196,51.0865029 C76.1527451,51.0831349 76.1564706,51.0797669 76.1601961,51.0771473 C76.2160784,51.028872 76.2645098,50.9794741 76.3054902,50.928205 C76.3203922,50.9128617 76.3278431,50.8960215 76.3352941,50.8806782 C76.365098,50.8391391 76.3911765,50.7979741 76.4098039,50.754938 C76.4321569,50.6935648 76.4470588,50.6299463 76.4470588,50.5629597 L76.4470588,49.4545001 C75.1207843,50.0364227 72.382549,50.188733 71.2313725,50.188733 C70.0801961,50.188733 67.3419608,50.0364227 66.0156863,49.4545001 Z M76.4247059,41.1563959 C76.2943137,40.1703084 73.34,39.7246044 71.2201961,39.7246044 C70.0280392,39.7246044 68.5676471,39.8660621 67.4947059,40.1654435 L67.4947059,40.1669404 C67.4388235,40.1815352 67.3866667,40.197627 67.3345098,40.2129703 C67.26,40.2357981 67.1854902,40.2590002 67.1184314,40.2829507 C67.0923529,40.2919321 67.0662745,40.3012878 67.0439216,40.3102692 C66.9507843,40.3435754 66.865098,40.3776301 66.7831373,40.4139301 C66.7794118,40.4169239 66.7719608,40.4191692 66.7682353,40.4217888 C66.5819608,40.5059898 66.4254902,40.5980496 66.302549,40.6983424 C66.2988235,40.700962 66.295098,40.70433 66.2913725,40.7076981 C66.2354902,40.7552249 66.1833333,40.804997 66.1423529,40.8562661 C66.1311765,40.8716094 66.1237255,40.8880754 66.1162745,40.9037929 C66.0864706,40.9453321 66.0603922,40.9861228 66.0417647,41.0291588 C66.0268627,41.0703238 66.0231373,41.1133599 66.0156863,41.1567702 C66.3770588,41.4531578 68.3888235,41.9699649 71.2201961,41.9699649 C74.0515686,41.9699649 76.0633333,41.4524093 76.4247059,41.1563959 Z M66.0156863,41.9699649 L66.0156863,43.0050761 C66.3472549,43.2992184 68.3701961,43.8268781 71.2313725,43.8268781 C74.092549,43.8268781 76.1154902,43.2992184 76.4470588,43.0050761 L76.4470588,41.9699649 C75.1207843,42.5518875 72.382549,42.7041978 71.2313725,42.7041978 C70.0801961,42.7041978 67.3419608,42.5518875 66.0156863,41.9699649 Z M66.0156863,47.5833663 L66.0156863,48.6184775 C66.3472549,48.9126197 68.3701961,49.4402794 71.2313725,49.4402794 C74.092549,49.4402794 76.1154902,48.9126197 76.4470588,48.6184775 L76.4470588,47.5833663 C75.1207843,48.1652889 72.382549,48.3175992 71.2313725,48.3175992 C70.0801961,48.3175992 67.3419608,48.1652889 66.0156863,47.5833663 Z M66.0156863,45.7122325 L66.0156863,46.7473437 C66.3472549,47.0418602 68.3701961,47.5695199 71.2313725,47.5695199 C74.092549,47.5695199 76.1154902,47.0418602 76.4470588,46.7473437 L76.4470588,45.7122325 C75.1207843,46.2941551 72.382549,46.4468396 71.2313725,46.4468396 C70.0801961,46.4468396 67.3419608,46.2941551 66.0156863,45.7122325 Z M66.0156863,43.8410987 L66.0156863,44.8762099 C66.3472549,45.1707264 68.3701961,45.6980119 71.2313725,45.6980119 C74.092549,45.6980119 76.1154902,45.1707264 76.4470588,44.8762099 L76.4470588,43.8410987 C75.1207843,44.4230213 72.382549,44.5753316 71.2313725,44.5753316 C70.0801961,44.5753316 67.3419608,44.4230213 66.0156863,43.8410987 Z" transform="translate(-65 -29)" fill="#348EE0"/></svg>