<svg width="22" height="23" viewBox="0 0 22 23" xmlns="http://www.w3.org/2000/svg"><desc>Created with Sketch.</desc><path d="M71.2035226,51.6114458 L65.2705882,51.6114458 L65.2705882,45.9505808 L71.2035226,45.9505808 L71.2035226,51.6114458 L71.2035226,51.6114458 Z M78.9396514,43.2631474 L72.9484869,43.2631474 L72.9484869,51.6114458 L78.9396514,51.6114458 L78.9396514,43.2631474 L78.9396514,43.2631474 Z M86.6175501,39.6036148 L80.6264411,39.6036148 L80.6264411,51.6114458 L86.6175501,51.6114458 L86.6175501,39.6036148 L86.6175501,39.6036148 Z M86.7294118,29.1716867 L81.8743164,29.9974917 L82.9427365,31.0584239 L75.6407019,37.9573971 L72.9885444,35.4925094 L65.5635672,42.7646252 L67.3901424,44.530558 L72.911643,39.1028596 L75.6465194,41.6466677 L84.76222,32.8986475 L85.7999461,33.928371 L86.7294118,29.1716867 L86.7294118,29.1716867 Z" transform="translate(-65 -29)" fill="#348EE0"/></svg>