<svg width="28" height="28" viewBox="0 0 28 28" xmlns="http://www.w3.org/2000/svg"><desc>Created with Sketch.</desc><path d="M62.5882353,40.8399127 L62.5882353,49.8162651 C62.5882353,50.0631024 62.7894118,50.2646114 63.0352941,50.2646114 L66.1647059,50.2646114 L66.1647059,40.3915663 L63.0352941,40.3915663 C62.7894118,40.3915663 62.5882353,40.5930753 62.5882353,40.8399127 Z M88.9647059,40.3915663 L85.8352941,40.3915663 L85.8352941,50.2646114 L88.9647059,50.2646114 C89.2105882,50.2646114 89.4117647,50.0631024 89.4117647,49.8162651 L89.4117647,40.8399127 C89.4117647,40.5930753 89.2105882,40.3915663 88.9647059,40.3915663 Z M68.4,36.800756 C68.1541176,36.800756 67.9529412,37.0027139 67.9529412,37.2495512 L67.9529412,39.2870813 L75.7943529,36.800756 L68.4,36.800756 Z M83.6,36.800756 L76.2056471,36.800756 L84.0470588,39.2870813 L84.0470588,37.2495512 C84.0470588,37.0027139 83.8458824,36.800756 83.6,36.800756 Z M74.2117647,43.9814789 L77.7882353,43.9814789 L77.7882353,50.2646114 L74.2117647,50.2646114 L74.2117647,43.9814789 Z M82.2588235,43.9814789 L84.9411765,43.9814789 L84.9411765,50.2646114 L82.2588235,50.2646114 L82.2588235,43.9814789 Z M70.6352941,43.9814789 L73.3176471,43.9814789 L73.3176471,50.2646114 L70.6352941,50.2646114 L70.6352941,43.9814789 Z M78.6823529,43.9814789 L81.3647059,43.9814789 L81.3647059,50.2646114 L78.6823529,50.2646114 L78.6823529,43.9814789 Z M84.6282353,40.4090693 L76,37.6759066 L67.3717647,40.4090693 C67.184,40.4723494 67.0588235,40.6424428 67.0588235,40.8399127 L67.0588235,43.0843373 L84.9411765,43.0843373 L84.9411765,40.8399127 C84.9411765,40.6424428 84.816,40.4723494 84.6282353,40.4090693 Z M67.0588235,43.9814789 L69.7411765,43.9814789 L69.7411765,50.2646114 L67.0588235,50.2646114 L67.0588235,43.9814789 Z M67.0588235,53.4061777 C67.0588235,53.6530151 67.26,53.8554217 67.5058824,53.8554217 L84.4941176,53.8554217 C84.74,53.8554217 84.9411765,53.6530151 84.9411765,53.4061777 L84.9411765,51.1626506 L67.0588235,51.1626506 L67.0588235,53.4061777 Z M68.4,36.3524096 L83.6,36.3524096 C83.8458824,36.3524096 84.0470588,36.150003 84.0470588,35.9031657 C84.0470588,31.6979548 80.2112941,29.3597319 76.4470588,29.1891898 L76.4470588,27.3760572 C76.4470588,27.1292199 76.2458824,26.9277108 76,26.9277108 C75.7541176,26.9277108 75.5529412,27.1292199 75.5529412,27.3760572 L75.5529412,29.1891898 C71.7887059,29.3597319 67.9529412,31.6979548 67.9529412,35.9031657 C67.9529412,36.150003 68.1541176,36.3524096 68.4,36.3524096 Z" transform="translate(-62 -26)" fill="#348EE0"/></svg>