<svg width="28" height="28" viewBox="0 0 28 28" xmlns="http://www.w3.org/2000/svg"><desc>Created with Sketch.</desc><path d="M67.5057253,43.0843373 L63.0352798,43.0843373 C62.7894053,43.0843373 62.5882353,43.3087349 62.5882353,43.5331325 L62.5882353,51.6114458 C62.5882353,51.8807229 62.7894053,52.060241 63.0352798,52.060241 L67.5057253,52.060241 C67.7515998,52.060241 67.9527698,51.8807229 67.9527698,51.6114458 L67.9527698,43.5331325 C67.9527698,43.3087349 67.7515998,43.0843373 67.5057253,43.0843373 Z M89.2812649,47.7069277 C87.9535426,46.4058705 87.0326308,46.3605422 85.6825563,46.7195783 L83.4652154,47.4380994 C83.41157,47.8864458 83.2416931,48.3356898 82.9645255,48.6498464 C82.5755968,49.1430723 82.0212615,49.3674699 81.364106,49.3674699 L75.1054825,49.3674699 C74.859608,49.3674699 74.6584379,49.1879518 74.6584379,48.9186747 C74.6584379,48.6942771 74.859608,48.4698795 75.1054825,48.4698795 L81.364106,48.4698795 C81.7485644,48.4698795 82.0570251,48.3356898 82.2805474,48.0659639 C82.477247,47.8415663 82.5934785,47.4825301 82.5934785,47.123494 C82.5934785,47.0790633 82.5890081,46.9893042 82.5800672,46.8990964 C82.3520745,46.2707831 81.7887984,45.7771084 80.9215319,45.7771084 L79.7100412,45.7771084 L77.7922202,45.7771084 C77.6938704,45.7771084 77.5955206,45.7326777 77.519523,45.6873494 C76.1113327,44.5653614 74.5511472,43.9819277 72.8792006,43.9819277 L72.4858014,43.9819277 L72.4232152,43.9819277 L68.8468589,43.9819277 C68.6009844,43.9819277 68.3998143,44.2063253 68.3998143,44.4307229 L68.3998143,50.6694247 C68.3998143,50.848494 68.5205164,51.0284608 68.7038046,51.0728916 C70.4517488,51.6563253 71.8375869,52.1948795 72.9462573,52.5987952 C75.2127732,53.4066265 76.4779092,53.8554217 77.6357546,53.8554217 C79.0528858,53.8554217 80.3135514,53.1822289 83.0449935,51.6563253 C84.4934178,50.8933735 86.4782956,49.7718343 89.1650333,48.4254488 C89.2902058,48.3801205 89.3796147,48.2454819 89.4064374,48.1112922 C89.4287896,47.9766536 89.3796147,47.8415663 89.2812649,47.7069277 Z M74.4036225,32.9420151 C74.7389059,32.8966867 75.0294849,32.852256 75.2708889,32.852256 C75.6419359,32.852256 75.7939311,32.9420151 75.8296946,32.9864458 C75.843106,33.0762048 75.8878104,33.1664127 75.9593375,33.2108434 C76.2767392,33.5254488 76.7148428,33.7045181 77.2602372,33.7045181 C77.7251635,33.7045181 78.2035011,33.5698795 78.6281935,33.4801205 C78.9321837,33.435241 79.2227627,33.3454819 79.4105214,33.3454819 C79.6340437,33.3454819 79.8218024,33.2108434 79.8530955,32.9864458 C79.9648566,32.1790633 80.0900291,30.7873494 79.6608663,30.2936747 C79.4507554,30.0692771 79.1244129,29.9795181 78.8159522,30.1594849 C78.6594866,30.2039157 78.503021,30.249244 78.3733781,30.249244 C78.09174,30.249244 77.930804,30.0692771 77.8950404,29.710241 C77.8503359,29.2618946 79.4149918,28.5433735 80.8768275,28.2296657 C81.3819878,28.3638554 83.5546243,29.4862922 84.4174203,30.4736416 C84.2877773,30.9668675 83.8675555,32.223494 82.8706462,32.8069277 C82.678417,32.8069277 82.477247,32.7620482 82.2716065,32.7620482 C81.1897587,32.7620482 79.687689,33.435241 79.687689,34.0635542 C79.687689,34.1986416 79.7815684,34.3777108 79.9156817,34.4674699 C79.9559157,34.4674699 80.0140315,34.5127982 80.0721473,34.5127982 C80.1973198,34.6918675 80.4163716,35.2304217 80.5460145,35.7689759 C80.5638963,35.8591837 80.6041303,35.9036145 80.6622461,35.9938223 C80.8634162,36.1728916 81.1361133,36.2626506 81.4579854,36.2626506 C81.6233919,36.2626506 81.7843279,36.2626506 81.9229117,36.2182199 C81.9050299,36.6670151 81.2121109,37.3846386 80.8097708,37.7885542 C80.3761376,38.2377982 80.139204,38.5066265 80.139204,38.8207831 C80.139204,39.1798193 80.3895489,39.3597861 80.5728372,39.5388554 C80.6086008,39.5841837 80.6533052,39.6286145 80.6890688,39.6286145 C80.6801279,39.6739428 80.671187,39.6739428 80.6622461,39.6739428 C80.1660267,40.1671687 79.6653368,40.3471355 79.6608663,40.3471355 C79.4775781,40.3915663 79.3568761,40.5715331 79.3568761,40.7954819 C79.3568761,41.7828313 78.7399546,42.2769548 77.5239934,42.2769548 C77.2647076,42.096988 76.7416655,41.064759 76.7193133,40.7954819 C76.7193133,40.7061717 76.7997813,40.5262048 76.8713084,40.3915663 C76.9830695,40.1671687 77.1127125,39.8983404 77.1127125,39.5841837 C77.1127125,39.1349398 76.6656679,38.5963855 76.3214436,38.2377982 C76.2320347,36.7563253 75.0563076,36.7563253 74.6629084,36.7563253 L74.1041027,36.7563253 C73.916344,36.7563253 73.7241148,36.8012048 73.5274152,36.8012048 C72.8166144,36.8012048 72.7987326,35.7240964 72.7987326,35.6792169 C72.7987326,35.6347861 72.8166144,33.2557229 74.4036225,32.9420151 Z M72.8792006,43.0843373 C74.7076128,43.0843373 76.415323,43.7130994 77.9531562,44.8795181 L79.7055708,44.8795181 L81.3730469,44.8795181 C81.6770372,44.8795181 81.9497344,44.9697259 82.1911384,45.0594849 C85.4143296,43.5331325 87.6584932,40.2573765 87.6584932,36.4421687 C87.6584932,34.0635542 86.773345,31.8644578 85.3159798,30.2039157 C85.3025685,30.1594849 85.2891571,30.1141566 85.2623344,30.0692771 C84.8957579,29.5760512 84.2430729,29.0819277 83.541213,28.6331325 C83.1925182,28.3638554 82.8259417,28.1399066 82.4459538,27.9599398 C81.775387,27.6009036 81.1852882,27.376506 80.9215319,27.3316265 L80.8947093,27.3316265 C80.0408542,27.1076777 79.1333538,26.9277108 78.1990307,26.9277108 C72.9775504,26.9277108 68.7350977,31.1912651 68.7350977,36.4421687 C68.7350977,39.0451807 69.7767115,41.3793645 71.457599,43.0843373 L72.8792006,43.0843373 L72.8792006,43.0843373 Z" transform="translate(-62 -26)" fill="#348EE0"/></svg>