<svg width="23" height="24" viewBox="0 0 23 24" xmlns="http://www.w3.org/2000/svg"><desc>Created with Sketch.</desc><path d="M67.0923529,41.2291816 C67.0998039,41.2676172 67.1072549,41.2676172 67.1147059,41.3060527 L67.5431373,42.0444811 L70.694902,42.0444811 L71.8498039,40.5687891 C72.0584314,40.2974108 72.382549,40.1029037 72.7178431,40.1029037 L72.7923529,40.1029037 C73.15,40.1413392 73.4778431,40.3358464 73.6678431,40.6468249 L74.3980392,41.8884095 L75.7913725,38.5111285 C75.9664706,38.0840669 76.372549,37.7734766 76.8196078,37.7734766 L76.8903922,37.7734766 C77.3784314,37.8119122 77.7770588,38.1617145 77.9,38.6664236 L79.0101961,43.053123 L79.1741176,42.7040972 C79.3641176,42.3158594 79.7478431,42.0444811 80.172549,42.0444811 L85.0082353,42.0444811 L85.4590196,41.3060527 C85.4664706,41.3060527 85.4701961,41.2676172 85.4776471,41.2676172 C85.6266667,40.9570269 85.7719608,40.6468249 85.9098039,40.3746702 C86.45,39.2487804 86.8784314,38.3942689 86.8784314,36.9970009 C86.8784314,31.9114734 84.2929412,29.6204819 81.7335294,29.6204819 C79.7552941,29.6204819 77.4380392,31.0569619 76.4470588,34.1628647 C75.4560784,31.0569619 73.1388235,29.6204819 71.1605882,29.6204819 C68.6011765,29.6204819 66.0156863,31.9114734 66.0156863,36.9970009 C66.0156863,38.5111285 66.5111765,39.7534896 67.0364706,41.1123221 L67.0923529,41.2291816 Z M79.8409804,46.7805945 C79.6509804,47.1684442 79.2672549,47.4013869 78.842549,47.4013869 L78.7382353,47.4013869 C78.2688235,47.3629513 77.8776471,47.013149 77.7621569,46.5472636 L76.7264706,42.4323307 L75.7727451,44.7617578 C75.6088235,45.1496074 75.247451,45.4213739 74.8301961,45.4605859 L74.7556863,45.4605859 C74.3570588,45.4605859 74.0031373,45.2660787 73.7982353,44.9166647 L72.77,43.2084182 L72.2633333,43.8688107 C72.0509804,44.1398007 71.7305882,44.2958724 71.3915686,44.2958724 L68.9960784,44.2958724 L69.4543137,45.1496074 C69.4617647,45.1496074 69.4692157,45.1496074 69.4803922,45.1884312 C72.382549,49.2261047 76.2384314,51.9049458 76.4023529,52.0218054 C76.4656863,52.060241 76.5364706,52.060241 76.6072549,52.060241 C76.6892157,52.060241 76.767451,52.060241 76.8345098,51.9825934 C76.8717647,51.9825934 80.4370588,49.0708096 83.2907843,45.1496074 L83.7862745,44.2958724 L81.0219608,44.2958724 L79.8409804,46.7805945 Z M87.2509804,42.8201803 L80.172549,42.8201803 C80.0309804,42.8201803 79.9043137,42.8978279 79.8372549,43.0527348 L78.7903922,45.2272549 L77.1809804,38.8601543 C77.14,38.7052474 77.0058824,38.5883878 76.8456863,38.5499523 L76.8047059,38.5499523 C76.6705882,38.5499523 76.5364706,38.6660354 76.4768627,38.7825068 L74.5209804,43.5582205 L73.0382353,41.07311 C72.974902,40.9566387 72.8668627,40.9178149 72.7513725,40.8793793 L72.6992157,40.8793793 C72.6098039,40.8793793 72.4980392,40.9566387 72.4309804,41.0346745 L71.052549,42.8201803 L65.6431373,42.8201803 C65.4382353,42.8201803 65.2705882,43.0142992 65.2705882,43.2088064 C65.2705882,43.4413609 65.4382353,43.596656 65.6431373,43.596656 L71.2313725,43.596656 C71.3431373,43.596656 71.4511765,43.5582205 71.5219608,43.4801847 L72.6843137,41.9660571 L74.2676471,44.6060744 C74.3384314,44.722934 74.4539216,44.7613695 74.5843137,44.7613695 L74.6290196,44.7613695 C74.7519608,44.7613695 74.8711765,44.683722 74.9270588,44.5288151 L76.7339216,40.140951 L78.3209804,46.4307923 C78.3619608,46.5864756 78.4923529,46.702947 78.6488235,46.702947 L78.6823529,46.702947 C78.8239216,46.702947 78.9505882,46.6249112 79.0139216,46.5084398 L80.4035294,43.596656 L87.2509804,43.596656 C87.4558824,43.596656 87.6235294,43.4413609 87.6235294,43.2088064 C87.6235294,43.0142992 87.4558824,42.8201803 87.2509804,42.8201803 Z" transform="translate(-65 -29)" fill="#348EE0"/></svg>