<svg width="24" height="28" viewBox="0 0 24 28" xmlns="http://www.w3.org/2000/svg"><desc>Created with Sketch.</desc><path d="M73.4077942,50.5525245 C75.5197751,53.2088852 71.4336925,55.1185264 69.4261087,52.843924 C68.0601079,51.2961068 68.3580312,48.7764105 71.0037829,47.5857768 C71.6519955,48.3826916 72.611591,49.5511033 73.4077942,50.5525245 L73.4077942,50.5525245 Z M72.2326412,36.7455664 L81.8476149,31.379774 C82.4531043,28.4374704 79.3967957,26.0300597 76.5766695,27.253634 L76.5752633,27.2508236 L68.5257093,31.271998 C71.0267516,31.874733 72.5620376,34.2637126 72.2326412,36.7455664 L72.2326412,36.7455664 Z M85.4492792,46.3439022 C85.2614449,46.4641616 86.1276256,45.9307065 75.9701756,52.182105 C75.9916041,51.2259772 75.652431,50.2154713 74.9759596,49.3647012 C74.5895767,48.8786963 67.2771637,39.7934238 65.8685068,38.0646946 C62.6621316,34.1297279 67.6667608,31.3187293 69.7360855,34.3020126 C70.6546321,35.6259773 70.3429142,37.7153541 69.0093241,38.5647516 L70.2543207,40.0835496 L80.7210109,34.2407718 C82.1160071,35.8990446 85.3537884,39.7485226 86.4202587,41.0234685 C87.7304114,42.5896514 87.2948099,45.1627455 85.4492792,46.3439022 L85.4492792,46.3439022 Z M73.1167682,43.6572152 L81.9118335,38.588542 L80.9154746,37.4042482 L72.1597842,42.4503727 L73.1167682,43.6572152 L73.1167682,43.6572152 Z M84.0763142,41.1817665 L83.0798883,39.9974727 L74.243908,45.0896095 L75.200825,46.296452 L84.0763142,41.1817665 L84.0763142,41.1817665 Z" transform="translate(-64 -26)" fill="#348EE0"/></svg>