<svg width="28" height="21" viewBox="0 0 28 21" xmlns="http://www.w3.org/2000/svg"><desc>Created with Sketch.</desc><path d="M76.2056471,46.5697725 C76.1385882,46.6026821 76.0715294,46.6214877 76,46.6214877 C75.9284706,46.6214877 75.8569412,46.6026821 75.7943529,46.5697725 L68.8470588,42.7898598 L68.8470588,44.9383922 C69.9289412,45.4790514 70.6352941,46.6355918 70.6352941,47.9148384 C70.6352941,48.0036946 70.6308235,48.0981924 70.6218824,48.1870485 C72.048,49.0144921 73.8630588,49.5692554 76,49.5692554 C81.5390588,49.5692554 84.9411765,45.8645649 84.9411765,43.2129843 L84.9411765,41.8166733 L76.2056471,46.5697725 Z M67.0588235,41.8166733 L67.0588235,45.6106901 C66.9425882,45.634197 66.8308235,45.6722783 66.7190588,45.7141206 C66.6788235,45.7329261 66.6385882,45.7569032 66.5938824,45.7757087 C66.5268235,45.8081483 66.4552941,45.8410579 66.3882353,45.8838405 C66.348,45.9073475 66.3122353,45.9350856 66.272,45.9585925 C66.2094118,46.0056064 66.1512941,46.0479188 66.0931765,46.1001042 C66.0574118,46.1325437 66.0216471,46.1654534 65.9858824,46.1983631 C65.9322353,46.2500783 65.8830588,46.3017936 65.8338824,46.3582102 C65.8025882,46.4005226 65.7712941,46.4428351 65.74,46.4851475 C65.6952941,46.5415641 65.6595294,46.5979808 65.6237647,46.6595689 C65.5924706,46.7065827 65.5656471,46.7531264 65.5388235,46.8053118 C65.5075294,46.8659596 65.4807059,46.9322492 65.4538824,46.992897 C65.436,47.0446122 65.4136471,47.0963275 65.3957647,47.1527441 C65.3689412,47.2232648 65.3510588,47.3031884 65.3376471,47.3784105 C65.3242353,47.4254243 65.3108235,47.4724382 65.3018824,47.5241534 C65.284,47.6510908 65.2705882,47.7780281 65.2705882,47.9148384 C65.2705882,48.2387638 65.3331765,48.5443537 65.4449412,48.8264368 C65.7847059,49.6726859 66.5804706,50.2650602 67.5058824,50.2650602 C68.4312941,50.2650602 69.2270588,49.6726859 69.5668235,48.8264368 C69.6785882,48.5443537 69.7411765,48.2387638 69.7411765,47.9148384 C69.7411765,47.7968337 69.7277647,47.689172 69.7143529,47.58057 C69.5981176,46.7249181 69.0392941,45.9915022 68.2524706,45.695315 L67.9529412,45.5876533 L67.9529412,42.301386 L67.0588235,41.8166733 Z M89.4117647,38.0419321 C89.4117647,37.8632795 89.3178824,37.7029623 89.1703529,37.6230388 L76.2056471,30.5709629 C76.076,30.5004421 75.924,30.5004421 75.7943529,30.5709629 L62.8296471,37.6230388 C62.6821176,37.7029623 62.5882353,37.8632795 62.5882353,38.0419321 C62.5882353,38.2158833 62.6821176,38.3752602 62.8296471,38.4598851 L76,45.620563 L89.1703529,38.4598851 C89.3178824,38.3752602 89.4117647,38.2158833 89.4117647,38.0419321 Z" transform="translate(-62 -30)" fill="#348EE0"/></svg>