<svg width="15" height="28" viewBox="0 0 15 28" xmlns="http://www.w3.org/2000/svg"><desc>Created with Sketch.</desc><path d="M77.7882353,33.7938283 C77.3550353,33.7045181 76.9066353,33.6596386 76.4470588,33.6596386 C75.9879294,33.6596386 75.5395294,33.7045181 75.1058824,33.7938283 L75.1058824,32.313253 L77.7882353,32.313253 L77.7882353,33.7938283 L77.7882353,33.7938283 Z M78.6823529,34.0496416 L78.6823529,32.313253 L79.1294118,32.313253 C79.3270118,32.313253 79.5009176,32.1826536 79.5576941,31.9941596 L80.8988706,27.5062078 C80.9395529,27.3670813 80.9136235,27.2185301 80.8291294,27.1067801 C80.7450824,26.9945813 80.6118588,26.9277108 80.4705882,26.9277108 L72.4235294,26.9277108 C72.2822588,26.9277108 72.1490353,26.9945813 72.0649882,27.1067801 C71.9804941,27.2185301 71.9545647,27.3670813 71.9952471,27.5062078 L73.3364235,31.9941596 C73.3932,32.1826536 73.5675529,32.313253 73.7647059,32.313253 L74.2117647,32.313253 L74.2117647,34.0496416 C71.6116706,34.9786476 69.7411765,37.4649729 69.7411765,40.3915663 C69.7411765,43.9146084 75.3785882,53.2446114 75.6182118,53.64 C75.6995765,53.7741898 75.8444235,53.8554217 76,53.8554217 L76,43.0843373 C76,43.0614488 76.0093882,43.043497 76.0120706,43.0255452 C75.2359765,42.8285241 74.6588235,42.1279548 74.6588235,41.2887078 C74.6588235,40.2968705 75.4595059,39.4939759 76.4470588,39.4939759 C77.4346118,39.4939759 78.2352941,40.2968705 78.2352941,41.2887078 C78.2352941,42.1279548 77.6581412,42.8285241 76.8820471,43.0210572 C76.8851765,43.043497 76.8941176,43.0614488 76.8941176,43.0843373 L76.8941176,53.8554217 C77.0532706,53.8554217 77.2003529,53.7697018 77.2808235,53.6310241 C77.5204471,53.2176837 83.1529412,43.4743404 83.1529412,40.3915663 C83.1529412,37.4649729 81.2828941,34.9786476 78.6823529,34.0496416 L78.6823529,34.0496416 Z" transform="translate(-69 -26)" fill="#348EE0"/></svg>