<svg width="28" height="28" viewBox="0 0 28 28" xmlns="http://www.w3.org/2000/svg"><desc>Created with Sketch.</desc><path d="M68.8470588,31.176221 C68.8470588,30.9956844 68.9543529,30.8164951 69.1242353,30.7715855 C69.2896471,30.6822154 69.4818824,30.7266759 69.6115294,30.8614047 L71.136,32.3887803 C71.9898824,33.2416136 75.164,34.0948961 79.572,34.0948961 C80.5331765,34.0948961 81.4272941,34.0504356 82.2588235,34.0050769 L82.2588235,27.8080009 C82.2588235,27.6274643 82.1425882,27.448275 81.9637647,27.4033654 C81.7894118,27.3584558 81.5927059,27.4033654 81.4675294,27.5385433 C80.484,28.7057438 76.9164706,29.5141167 72.5889412,29.5141167 C68.248,29.5141167 64.5374118,28.7057438 63.3527059,27.4931846 C63.2230588,27.3584558 63.0308235,27.3584558 62.8654118,27.4033654 C62.6955294,27.4931846 62.5882353,27.6274643 62.5882353,27.8080009 L62.5882353,37.2385682 C62.5882353,40.8313363 65.1722353,43.9750085 66.3077647,45.2324773 L72.1195294,50.6216295 C72.1642353,50.6665391 72.2134118,50.6665391 72.2625882,50.7114487 C70.3357647,48.5108782 68.8470588,45.726932 68.8470588,42.6277204 L68.8470588,31.176221 Z M85.3882353,41.7295284 C85.1423529,41.7295284 84.9411765,41.54989 84.9411765,41.2804323 C84.9411765,40.5618787 84.3376471,39.9331443 83.6,39.9331443 C82.8623529,39.9331443 82.2588235,40.5618787 82.2588235,41.2804323 C82.2588235,41.54989 82.0576471,41.7295284 81.8117647,41.7295284 C81.5658824,41.7295284 81.3647059,41.54989 81.3647059,41.2804323 C81.3647059,40.0678731 82.3661176,39.0349523 83.6,39.0349523 C84.8338824,39.0349523 85.8352941,40.0678731 85.8352941,41.2804323 C85.8352941,41.54989 85.6341176,41.7295284 85.3882353,41.7295284 Z M79.5764706,50.2623527 C77.3590588,50.2623527 75.5529412,48.4659686 75.5529412,46.2204885 C75.5529412,45.9959405 75.7541176,45.7713925 76,45.7713925 C76.2458824,45.7713925 76.4470588,45.9959405 76.4470588,46.2204885 C76.4470588,47.971963 77.8508235,49.3641607 79.5764706,49.3641607 C81.3021176,49.3641607 82.7058824,47.971963 82.7058824,46.2204885 C82.7058824,45.9959405 82.9070588,45.7713925 83.1529412,45.7713925 C83.3988235,45.7713925 83.6,45.9959405 83.6,46.2204885 C83.6,48.4659686 81.7938824,50.2623527 79.5764706,50.2623527 L79.5764706,50.2623527 Z M74.2117647,41.2804323 C74.2117647,41.54989 74.0105882,41.7295284 73.7647059,41.7295284 C73.5188235,41.7295284 73.3176471,41.54989 73.3176471,41.2804323 C73.3176471,40.0678731 74.3190588,39.0349523 75.5529412,39.0349523 C76.7868235,39.0349523 77.7882353,40.0678731 77.7882353,41.2804323 C77.7882353,41.54989 77.5870588,41.7295284 77.3411765,41.7295284 C77.0952941,41.7295284 76.8941176,41.54989 76.8941176,41.2804323 C76.8941176,40.5618787 76.2905882,39.9331443 75.5529412,39.9331443 C74.8152941,39.9331443 74.2117647,40.5618787 74.2117647,41.2804323 L74.2117647,41.2804323 Z M89.1345882,32.9276955 C88.9691765,32.8374272 88.7769412,32.8823368 88.6472941,33.0166165 C88.5757647,33.1068848 88.4908235,33.1517944 88.3969412,33.2416136 C87.3284706,34.0504356 85.0529412,34.6787209 82.2588235,34.9032689 C81.4049412,34.9486276 80.5063529,34.9930881 79.572,34.9930881 C75.3338824,34.9930881 71.6903529,34.2296249 70.5056471,33.0166165 L69.7411765,32.2540515 L69.7411765,42.6277204 C69.7411765,49.0497935 77.1668235,54.3042169 79.5764706,54.3042169 C81.9861176,54.3042169 89.4117647,49.0497935 89.4117647,42.6277204 L89.4117647,33.3314328 C89.4117647,33.1517944 89.3044706,32.972156 89.1345882,32.9276955 L89.1345882,32.9276955 Z" transform="translate(-62 -27)" fill="#348EE0"/></svg>