<svg width="19" height="24" viewBox="0 0 19 24" xmlns="http://www.w3.org/2000/svg"><desc>Created with Sketch.</desc><path d="M70.2157514,29.6204819 C64.9241704,40.1538791 75.0783746,49.8577677 85.799072,44.7766873 L70.2157514,29.6204819 L70.2157514,29.6204819 Z M80.694922,37.0599701 L83.446692,32.7648259 C83.6090912,32.5116161 83.9102576,32.3753436 84.2138321,32.4177722 C84.6913416,32.4845468 85.1920911,32.312545 85.5181214,31.9215376 C86.0118149,31.330043 85.9189674,30.4612104 85.3106985,29.9812065 C84.7024296,29.5012026 83.8090661,29.5916152 83.3155967,30.1832188 C83.055926,30.494162 82.9588225,30.8817925 83.0133102,31.2493252 C83.057158,31.5448002 82.9170467,31.8378242 82.656536,31.9956651 L78.2400065,34.6723144 L80.694922,37.0599701 L80.694922,37.0599701 Z M70.4191424,52.060241 L71.1598506,51.4102505 C72.454228,50.2745372 74.421946,50.2745372 75.7163234,51.4103049 L76.4570316,52.060241 L79.8174065,52.060241 L73.438143,46.4627738 L67.0588235,52.060241 L70.4191424,52.060241 L70.4191424,52.060241 Z" transform="translate(-67 -29)" fill="#348EE0"/></svg>